<svg width="42" height="17" viewBox="0 0 42 17" fill="none" xmlns="http://www.w3.org/2000/svg">
<path d="M1.62627 9.61445L38.4592 9.61445L32.6753 15.3983C32.3655 15.7082 32.3655 16.21 32.6753 16.5198C32.9851 16.8296 33.487 16.8296 33.7967 16.5198L40.9344 9.3821C41.2442 9.07228 41.2442 8.57041 40.9344 8.26067L33.7967 1.123C33.6418 0.968126 33.4389 0.890652 33.236 0.890652C33.0331 0.890652 32.8301 0.968126 32.6752 1.123C32.3654 1.43282 32.3654 1.93468 32.6752 2.24443L38.4591 8.02832L1.62627 8.02832C1.18791 8.02832 0.833173 8.38305 0.833173 8.82142C0.833172 9.25979 1.1879 9.61445 1.62627 9.61445Z" fill="#D0CCC2" fill-opacity="0.4"/>
</svg>
